<?xml version="1.0" encoding="utf-8"?>
<!-- Generator: Adobe Illustrator 19.1.0, SVG Export Plug-In . SVG Version: 6.00 Build 0)  -->
<svg version="1.1" id="Layer_1" xmlns="http://www.w3.org/2000/svg" xmlns:xlink="http://www.w3.org/1999/xlink" x="0px" y="0px"
	 viewBox="0 0 260.6 223.7" style="enable-background:new 0 0 260.6 223.7;" xml:space="preserve">
<g>
	<g>
		<path d="M192.1,5c8.1,8.1-14.3,43.5-18.1,47.3c-3.8,3.8-13.4,0.3-21.4-7.8c-8.1-8.1-11.5-17.7-7.8-21.4
			C148.6,19.3,184-3.1,192.1,5z"/>
		<path d="M79,13.5c-12.3-7-29.8-14.8-35.4-9.2C37.9,10,46,27.9,53,40.2C59.3,29.3,68.3,20.1,79,13.5z"/>
		<path d="M179.8,49.5c1.1,3.8,0.9,7-0.9,8.9c-4.3,4.3-15.9-0.3-26.4-10.2c-0.7-0.7-1.5-1.3-2.2-2c-3.8-3.8-6.7-7.8-8.6-11.5
			c-3.7-6.6-4.6-12.4-1.8-15.1c1.5-1.5,3.9-1.9,6.9-1.4c1.9-1.2,4.2-2.6,6.7-4c-10.1-5.3-21.6-8.3-33.8-8.3
			C79.2,5.8,46.5,38.6,46.5,79c0,40.4,32.8,73.2,73.2,73.2s73.2-32.8,73.2-73.2c0-13.1-3.4-25.3-9.4-35.9
			C182.2,45.5,180.9,47.6,179.8,49.5z"/>
	</g>
	<g>
		<g>
			<path d="M95.8,201.9c0,1.3-1,2.3-2.3,2.3H62.4c-1.3,0-2.3-1-2.3-2.3l0,0c0-1.3,1-2.3,2.3-2.3h31.2
				C94.8,199.6,95.8,200.6,95.8,201.9L95.8,201.9z"/>
			<circle cx="87.4" cy="214.8" r="2.3"/>
			<path d="M66,199.6c-1.3,0-2.3-1-2.3-2.3c0-0.1,0-0.2,0-0.3h-3.4v4.3H66L66,199.6C66,199.6,66,199.6,66,199.6z"/>
			<path d="M63.7,206.3c0-1.3,1-2.3,2.3-2.3c0,0,0,0,0,0v-1.6h-5.7v4.3h3.4C63.7,206.6,63.7,206.5,63.7,206.3z"/>
			<path d="M90.2,196.3c0.1,0.3,0.2,0.6,0.2,0.9c0,1.3-1,2.3-2.3,2.3c-0.1,0-0.1,0-0.2,0v2.3h5.1v-5.5H90.2z"/>
			<path d="M77,183.1c-10.4,0-18.8,8.4-18.8,18.8c0,10.4,8.4,18.8,18.8,18.8c4.6,0,8.8-1.7,12.1-4.4l-3.3-3.2c-2.4,1.9-5.5,3-8.8,3
				c-7.8,0-14.2-6.4-14.2-14.2s6.4-14.2,14.2-14.2s14.2,6.4,14.2,14.2c0,0,0,0.1,0,0.1h4.6c0,0,0-0.1,0-0.1
				C95.8,191.5,87.4,183.1,77,183.1z"/>
		</g>
		<g>
			<path d="M139,201.9c0,1.3-1,2.3-2.3,2.3h-31.2c-1.3,0-2.3-1-2.3-2.3l0,0c0-1.3,1-2.3,2.3-2.3h31.2C138,199.6,139,200.6,139,201.9
				L139,201.9z"/>
			<circle cx="130.6" cy="214.8" r="2.3"/>
			<path d="M109.2,199.6c-1.3,0-2.3-1-2.3-2.3c0-0.1,0-0.2,0-0.3h-3.4v4.3h5.7L109.2,199.6C109.2,199.6,109.2,199.6,109.2,199.6z"/>
			<path d="M106.9,206.3c0-1.3,1-2.3,2.3-2.3c0,0,0,0,0,0v-1.6h-5.7v4.3h3.4C106.9,206.6,106.9,206.5,106.9,206.3z"/>
			<path d="M133.4,196.3c0.1,0.3,0.2,0.6,0.2,0.9c0,1.3-1,2.3-2.3,2.3c-0.1,0-0.1,0-0.2,0v2.3h5.1v-5.5H133.4z"/>
			<path d="M120.2,183.1c-10.4,0-18.8,8.4-18.8,18.8c0,10.4,8.4,18.8,18.8,18.8c4.6,0,8.8-1.7,12.1-4.4l-3.3-3.2
				c-2.4,1.9-5.5,3-8.8,3c-7.8,0-14.2-6.4-14.2-14.2s6.4-14.2,14.2-14.2c7.9,0,14.2,6.4,14.2,14.2c0,0,0,0.1,0,0.1h4.6
				c0,0,0-0.1,0-0.1C139,191.5,130.5,183.1,120.2,183.1z"/>
		</g>
		<g>
			<path d="M42.4,187.4C42.4,187.5,42.4,187.5,42.4,187.4c-4.4,0.9-7.8,4.8-7.8,9.5c0,0.2,0,0.3,0,0.5v20.9c0,1.3-1.1,2.4-2.4,2.4
				c-1.3,0-2.4-1.1-2.4-2.4v-22.2c0.5-6.9,5.8-12.4,12.6-13.1c1,0.3,1.7,1.1,1.7,2.2C44.1,186.3,43.4,187.2,42.4,187.4z"/>
			<circle cx="53.5" cy="190" r="2.3"/>
			<path d="M52,191.9c0.9-1.4,1.9-2.6,3-3.7c-2.6-3.2-6.6-5.3-11.1-5.3c-7.6,0-13.7,5.9-14.2,13.3h4.6c0.4-4.9,4.5-8.7,9.5-8.7
				C47.4,187.5,50.3,189.3,52,191.9z"/>
		</g>
		<path d="M204.2,220.5c6.9-0.8,13.3-7.4,12.2-14.5c-0.5-3-2.4-6.1-5.7-8.2c-2.5-1.7-14.9-7.5-17.1-9.1c-1.3-1-4-3.8-4.1-5.6
			c-0.5-4.9,2.1-6.9,4.8-8.2c1.1-0.5,2.5-0.7,3.1-0.8c5-0.6,6.7,0.3,11.2,2.5c0.5,0.2,0.9,0.2,1.5,0.2c1.5-0.2,2.6-0.9,2.4-2.5
			c-0.2-1.1-0.8-1.7-2-2.3c-3.2-1.6-9.2-3.5-14.3-2.7c-0.1,0-0.2,0-0.3,0l0-0.1c-7,1.2-12.6,7.5-11.5,14.6c0.6,3.8,3.5,7,6.5,8.9
			c2,1.7,9.2,4.6,16.3,8.5c2.5,1.4,3.5,2.8,3.9,5.9c0.4,3.3-3.4,7-6.3,8.1c-4.6,1.3-10-0.6-13.6-2.5c-1.1-0.7-1.6-1.1-2.5-0.9
			c-1.5,0.2-2.6,1.7-2.4,3.2c0.2,1,0.8,1.7,1.8,2.2C194.5,220.2,198.8,221.2,204.2,220.5z"/>
		<g>
			<path d="M7.6,181.5C7.6,181.5,7.6,181.5,7.6,181.5c0.9-4.6,5-8.2,9.9-8.2c0.2,0,0.4,0,0.5,0h10c1.4,0,2.5-1.1,2.5-2.5
				c0-1.4-1.1-2.5-2.5-2.5H16.7c-7.2,0.5-12.9,6.1-13.7,13.1c0.3,1,1.2,1.7,2.3,1.7C6.4,183.3,7.3,182.6,7.6,181.5z"/>
			<path d="M4.6,195.2c0,1.3,1.1,2.4,2.4,2.4h15.4c1.3,0,2.4-1.1,2.4-2.4l0,0c0-1.3-1.1-2.4-2.4-2.4H7
				C5.7,192.8,4.6,193.9,4.6,195.2L4.6,195.2z"/>
			<path d="M14,170.9c0,1.3,1.2,2.4,2.7,2.4h2.1c1.5,0,2.7-1.1,2.7-2.4l0,0c0-1.3-1.2-2.4-2.7-2.4h-2.1
				C15.2,168.5,14,169.6,14,170.9L14,170.9z"/>
			<g>
				<path d="M5.5,177.1c1.4,0,2.5,0.8,2.5,1.8v39.8c0,1-1.1,1.8-2.5,1.8l0,0c-1.4,0-2.5-0.8-2.5-1.8v-37.5
					C3,180.2,4.1,177.1,5.5,177.1L5.5,177.1z"/>
			</g>
			<path d="M8.2,201.2c0-0.6,0.2-1.2,0.4-1.7c0.6-1.1,1.8-1.8,3.1-1.8h1.2v-3.6H4.3v7.8h3.9V201.2z"/>
			<path d="M8.2,189.2c0,0.6,0.2,1.2,0.4,1.7c0.6,1.1,1.8,1.8,3.1,1.8h1.2v3.6H4.3v-7.8h3.9V189.2z"/>
			<path d="M7.8,182.7c0.2-4.9,4-8.8,8.7-9.3v-4.8C9.1,169,3.2,175.1,3,182.7L7.8,182.7L7.8,182.7z"/>
		</g>
		<g>
			<path d="M147.3,218.4c0-1.3,1.2-2.3,2.6-2.3h21.4c1.5,0,2.6,1,2.6,2.3l0,0c0,1.3-1.2,2.3-2.6,2.3h-21.4
				C148.5,220.7,147.3,219.7,147.3,218.4L147.3,218.4z"/>
			<path d="M149.3,220.6c-1.3,0-2.3-1.2-2.3-2.6v-35.5c0-1.5,1-2.6,2.3-2.6l0,0c1.3,0,2.3,1.2,2.3,2.6V218
				C151.6,219.4,150.6,220.6,149.3,220.6L149.3,220.6z"/>
			<path d="M170.1,191v4.6c5.6,0.1,10.1,4.6,10.1,10.2c0,5.6-4.5,10.1-10.1,10.2v4.8c8.2,0,14.9-6.7,14.9-14.9
				C185,197.7,178.3,191,170.1,191z"/>
			<path d="M148.2,193.1c0,1.3,1.1,2.4,2.4,2.4h19.2c1.3,0,2.4-1.1,2.4-2.4l0,0c0-1.3-1.1-2.4-2.4-2.4h-19.2
				C149.2,190.8,148.2,191.8,148.2,193.1L148.2,193.1z"/>
			<path d="M158.4,170.8c0,1.3,0.7,2.3,1.5,2.3h5.9c0.8,0,1.5-1,1.5-2.3l0,0c0-1.3-0.7-2.3-1.5-2.3h-5.9
				C159.1,168.5,158.4,169.5,158.4,170.8L158.4,170.8z"/>
			<path d="M151.7,198.4c0-0.6,0.2-1.2,0.4-1.6c0.6-1.1,1.7-1.8,3-1.8h1.1v-3.5h-8.4v7.6h3.8V198.4z"/>
			<path d="M151.7,187.5c0,0.6,0.2,1.2,0.4,1.6c0.6,1.1,1.7,1.8,3,1.8h1.1v3.5h-8.4v-7.6h3.8V187.5z"/>
			<path d="M165.3,168.5v4.4c5,0,9,4.1,9,9.1c0,5-4,9.1-9,9.1v4.4c7.5,0,13.5-6.1,13.5-13.5C178.7,174.5,172.7,168.5,165.3,168.5z"
				/>
			<path d="M164.6,168.7v4.4c5,0,9,4,9,8.9c0,4.9-4,8.9-9,8.9v4.4c7.5,0,13.5-5.9,13.5-13.3C178.1,174.7,172,168.8,164.6,168.7z"/>
			<path d="M151.6,182.3c0.2-4.7,3.9-8.6,8.5-9.1v-4.7c-7.3,0.5-13,6.5-13.2,13.8H151.6z"/>
		</g>
		<g>
			<path d="M221.5,218c0-1.2,0.8-2.2,1.8-2.2H238c1,0,1.8,1,1.8,2.2l0,0c0,1.2-4.8,2.2-5.8,2.2h-10.6
				C222.3,220.1,221.5,219.2,221.5,218L221.5,218z"/>
			<path d="M225.7,212.5c0,0.6,0.2,1.2,0.4,1.6c0.6,1.1,1.7,1.8,3,1.8h1.1v3.5h-8.4v-7.6h3.8V212.5z"/>
			<path d="M234.5,169.6c-0.2,0-0.4,0-0.5,0h-4.7l0,0c0,0-0.1,0-0.1,0c-4.2,0-7.7,3.2-8.1,7.4v40.6c0,1.5,1,2.6,2.3,2.6
				c1.3,0,2.3-1.2,2.3-2.6v-40.3c0-0.6,0.2-1.1,0.4-1.6c0.5-0.9,1.3-1.5,2.3-1.7h7.8c10.6,1.3,18.7,10.2,18.7,21
				c0,11.5-9.3,20.9-20.9,21.2v4.1c13.9-0.3,25.1-11.5,25.1-25.3C259.1,181.2,248.2,170.1,234.5,169.6z"/>
		</g>
	</g>
</g>
</svg>
